%FSLAX34Y34*%
G04 Gerber Fmt 3.4, Leading zero omitted, Abs format*
G04 (created by PCBNEW (2013-11-28 BZR 4510)-product) date Thu 12 Jun 2014 08:21:47 PM EDT*
%MOIN*%
G01*
G70*
G90*
G04 APERTURE LIST*
%ADD10C,0.005906*%
%ADD11R,0.078700X0.017700*%
%ADD12R,0.017700X0.078700*%
%ADD13R,0.055000X0.055000*%
%ADD14C,0.055000*%
%ADD15C,0.160000*%
%ADD16R,0.078740X0.015748*%
%ADD17R,0.045000X0.025000*%
G04 APERTURE END LIST*
G54D10*
G54D11*
X50254Y-37193D03*
X50254Y-36878D03*
X50254Y-36563D03*
X50254Y-36248D03*
X50254Y-35933D03*
X50254Y-35618D03*
X50254Y-35303D03*
X50254Y-34988D03*
X54020Y-34990D03*
X54020Y-37200D03*
X54020Y-36880D03*
X54020Y-36560D03*
X54020Y-36250D03*
X54020Y-35930D03*
X54020Y-35620D03*
X54020Y-35300D03*
G54D12*
X51038Y-34200D03*
X51352Y-34200D03*
X51668Y-34200D03*
X51982Y-34200D03*
X52298Y-34200D03*
X52612Y-34200D03*
X52928Y-34200D03*
X53242Y-34200D03*
X51040Y-37980D03*
X51350Y-37980D03*
X51670Y-37980D03*
X51980Y-37980D03*
X52290Y-37980D03*
X52610Y-37980D03*
X52930Y-37980D03*
X53250Y-37980D03*
G54D13*
X51150Y-39100D03*
G54D14*
X52150Y-39100D03*
X53150Y-39100D03*
G54D13*
X51150Y-33025D03*
G54D14*
X52150Y-33025D03*
X53150Y-33025D03*
X51150Y-32025D03*
X52150Y-32025D03*
X53150Y-32025D03*
G54D15*
X51090Y-30270D03*
X53750Y-30270D03*
X51170Y-40800D03*
X53700Y-40800D03*
G54D16*
X49900Y-38722D03*
X49900Y-38250D03*
X49900Y-37777D03*
G54D17*
X50175Y-34325D03*
X50175Y-33725D03*
X54175Y-37800D03*
X54175Y-38400D03*
X54075Y-33050D03*
X54075Y-32450D03*
G54D13*
X55100Y-33650D03*
G54D14*
X55100Y-34650D03*
X55100Y-35650D03*
X55100Y-36650D03*
X55100Y-37650D03*
X55100Y-38650D03*
G54D17*
X50325Y-33025D03*
X50325Y-32425D03*
X53925Y-34150D03*
X53925Y-33550D03*
M02*
