M48
;DRILL file {Pcbnew (2013-11-28 BZR 4510)-product} date Fri 30 May 2014 07:27:42 PM EDT
;FORMAT={-:-/ absolute / inch / decimal}
FMAT,2
INCH,TZ
T1C0.025
T2C0.032
T3C0.160
%
G90
G05
M72
T1
X5.098Y-3.492
X5.1475Y-3.4925
X5.1625Y-3.6975
X5.17Y-3.35
X5.1775Y-3.6025
X5.1975Y-3.49
X5.255Y-3.7275
X5.365Y-3.7675
T2
X5.115Y-3.2025
X5.115Y-3.3025
X5.115Y-3.91
X5.215Y-3.2025
X5.215Y-3.3025
X5.215Y-3.91
X5.315Y-3.2025
X5.315Y-3.3025
X5.315Y-3.91
X5.51Y-3.365
X5.51Y-3.465
X5.51Y-3.565
X5.51Y-3.665
X5.51Y-3.765
X5.51Y-3.865
T3
X5.109Y-3.027
X5.117Y-4.08
X5.37Y-4.08
X5.375Y-3.027
T0
M30
