%FSLAX34Y34*%
G04 Gerber Fmt 3.4, Leading zero omitted, Abs format*
G04 (created by PCBNEW (2013-11-28 BZR 4510)-product) date Thu 12 Jun 2014 08:21:47 PM EDT*
%MOIN*%
G01*
G70*
G90*
G04 APERTURE LIST*
%ADD10C,0.005906*%
%ADD11R,0.078700X0.017700*%
%ADD12R,0.017700X0.078700*%
%ADD13R,0.055000X0.055000*%
%ADD14C,0.055000*%
%ADD15C,0.160000*%
%ADD16R,0.078740X0.015748*%
%ADD17R,0.045000X0.025000*%
%ADD18C,0.035000*%
%ADD19C,0.010000*%
%ADD20C,0.015000*%
G04 APERTURE END LIST*
G54D10*
G54D11*
X50254Y-37193D03*
X50254Y-36878D03*
X50254Y-36563D03*
X50254Y-36248D03*
X50254Y-35933D03*
X50254Y-35618D03*
X50254Y-35303D03*
X50254Y-34988D03*
X54020Y-34990D03*
X54020Y-37200D03*
X54020Y-36880D03*
X54020Y-36560D03*
X54020Y-36250D03*
X54020Y-35930D03*
X54020Y-35620D03*
X54020Y-35300D03*
G54D12*
X51038Y-34200D03*
X51352Y-34200D03*
X51668Y-34200D03*
X51982Y-34200D03*
X52298Y-34200D03*
X52612Y-34200D03*
X52928Y-34200D03*
X53242Y-34200D03*
X51040Y-37980D03*
X51350Y-37980D03*
X51670Y-37980D03*
X51980Y-37980D03*
X52290Y-37980D03*
X52610Y-37980D03*
X52930Y-37980D03*
X53250Y-37980D03*
G54D13*
X51150Y-39100D03*
G54D14*
X52150Y-39100D03*
X53150Y-39100D03*
G54D13*
X51150Y-33025D03*
G54D14*
X52150Y-33025D03*
X53150Y-33025D03*
X51150Y-32025D03*
X52150Y-32025D03*
X53150Y-32025D03*
G54D15*
X51090Y-30270D03*
X53750Y-30270D03*
X51170Y-40800D03*
X53700Y-40800D03*
G54D16*
X49900Y-38722D03*
X49900Y-38250D03*
X49900Y-37777D03*
G54D17*
X50175Y-34325D03*
X50175Y-33725D03*
X54175Y-37800D03*
X54175Y-38400D03*
X54075Y-33050D03*
X54075Y-32450D03*
G54D13*
X55100Y-33650D03*
G54D14*
X55100Y-34650D03*
X55100Y-35650D03*
X55100Y-36650D03*
X55100Y-37650D03*
X55100Y-38650D03*
G54D17*
X50325Y-33025D03*
X50325Y-32425D03*
X53925Y-34150D03*
X53925Y-33550D03*
G54D18*
X50980Y-34920D03*
X51775Y-36025D03*
X52550Y-37275D03*
X51975Y-34900D03*
X51475Y-34925D03*
X53650Y-37675D03*
X51700Y-33500D03*
X51625Y-36975D03*
G54D19*
X51150Y-33025D02*
X50325Y-33025D01*
X51150Y-33025D02*
X51150Y-33500D01*
X51038Y-33612D02*
X51038Y-34200D01*
X51150Y-33500D02*
X51038Y-33612D01*
X54020Y-35930D02*
X54480Y-35930D01*
X55590Y-38160D02*
X55100Y-38650D01*
X55590Y-36350D02*
X55590Y-38160D01*
X55390Y-36150D02*
X55590Y-36350D01*
X54700Y-36150D02*
X55390Y-36150D01*
X54480Y-35930D02*
X54700Y-36150D01*
X50254Y-35618D02*
X50792Y-35618D01*
X50980Y-35430D02*
X50980Y-34920D01*
X50792Y-35618D02*
X50980Y-35430D01*
X50254Y-36248D02*
X49330Y-36248D01*
X49340Y-36240D02*
X49330Y-36240D01*
X49338Y-36240D02*
X49340Y-36240D01*
X49330Y-36248D02*
X49338Y-36240D01*
X50175Y-33725D02*
X49725Y-33725D01*
X49410Y-38250D02*
X49900Y-38250D01*
X49330Y-38170D02*
X49410Y-38250D01*
X49330Y-34120D02*
X49330Y-36240D01*
X49330Y-36240D02*
X49330Y-38170D01*
X49725Y-33725D02*
X49330Y-34120D01*
X53250Y-36400D02*
X53250Y-37980D01*
X52825Y-35975D02*
X53250Y-36400D01*
X51825Y-35975D02*
X52825Y-35975D01*
X51775Y-36025D02*
X51825Y-35975D01*
X52930Y-37480D02*
X52930Y-37980D01*
X52850Y-37400D02*
X52930Y-37480D01*
X52675Y-37400D02*
X52850Y-37400D01*
X52550Y-37275D02*
X52675Y-37400D01*
X52150Y-39100D02*
X52150Y-38775D01*
X51980Y-38605D02*
X51980Y-37980D01*
X52150Y-38775D02*
X51980Y-38605D01*
X49900Y-37777D02*
X49900Y-37600D01*
X49697Y-36878D02*
X50254Y-36878D01*
X49600Y-36975D02*
X49697Y-36878D01*
X49600Y-37300D02*
X49600Y-36975D01*
X49900Y-37600D02*
X49600Y-37300D01*
X49900Y-38722D02*
X50527Y-38722D01*
X50650Y-37589D02*
X50254Y-37193D01*
X50650Y-38600D02*
X50650Y-37589D01*
X50527Y-38722D02*
X50650Y-38600D01*
X53925Y-33550D02*
X53925Y-33400D01*
X54075Y-33250D02*
X54075Y-33050D01*
X53925Y-33400D02*
X54075Y-33250D01*
X51982Y-34893D02*
X51982Y-34200D01*
X51975Y-34900D02*
X51982Y-34893D01*
X53925Y-33550D02*
X52125Y-33550D01*
X51982Y-33693D02*
X51982Y-33700D01*
X51982Y-33700D02*
X51982Y-34200D01*
X52125Y-33550D02*
X51982Y-33693D01*
X55100Y-33650D02*
X55100Y-33150D01*
X54450Y-32450D02*
X54075Y-32450D01*
X54575Y-32575D02*
X54450Y-32450D01*
X54575Y-33100D02*
X54575Y-32575D01*
X54625Y-33150D02*
X54575Y-33100D01*
X55100Y-33150D02*
X54625Y-33150D01*
X51668Y-34732D02*
X51668Y-34200D01*
X51475Y-34925D02*
X51668Y-34732D01*
X54020Y-37305D02*
X54020Y-37200D01*
X53650Y-37675D02*
X54020Y-37305D01*
X51352Y-33673D02*
X51352Y-34200D01*
X51475Y-33550D02*
X51352Y-33673D01*
X51650Y-33550D02*
X51475Y-33550D01*
X51700Y-33500D02*
X51650Y-33550D01*
G54D20*
X50650Y-33510D02*
X50510Y-33370D01*
X50070Y-33370D02*
X49910Y-33210D01*
X50510Y-33370D02*
X50070Y-33370D01*
X50175Y-34325D02*
X50525Y-34325D01*
X50525Y-34325D02*
X50650Y-34200D01*
X50650Y-34200D02*
X50650Y-33510D01*
X49910Y-33210D02*
X49910Y-32450D01*
X49910Y-32450D02*
X49935Y-32425D01*
X49935Y-32425D02*
X50325Y-32425D01*
X50325Y-32425D02*
X50835Y-32425D01*
X50835Y-32425D02*
X50910Y-32500D01*
X50910Y-32500D02*
X52625Y-32500D01*
X52625Y-32500D02*
X53150Y-33025D01*
G54D19*
X52625Y-32500D02*
X53150Y-33025D01*
X50910Y-32500D02*
X52625Y-32500D01*
X50835Y-32425D02*
X50910Y-32500D01*
X49935Y-32425D02*
X50835Y-32425D01*
X49910Y-32450D02*
X49935Y-32425D01*
X49910Y-33210D02*
X49910Y-32450D01*
X50650Y-34200D02*
X50650Y-33510D01*
X50525Y-34325D02*
X50650Y-34200D01*
X53925Y-34150D02*
X53925Y-34275D01*
X52725Y-35475D02*
X52725Y-35625D01*
X53925Y-34275D02*
X52725Y-35475D01*
G54D20*
X50942Y-35933D02*
X50942Y-36563D01*
X50950Y-36550D02*
X50950Y-36563D01*
X50950Y-36555D02*
X50950Y-36550D01*
X50942Y-36563D02*
X50950Y-36555D01*
X50254Y-36563D02*
X50950Y-36563D01*
X50950Y-36563D02*
X51213Y-36563D01*
X51213Y-36563D02*
X51625Y-36975D01*
X54020Y-36250D02*
X53475Y-36250D01*
X50942Y-35933D02*
X50254Y-35933D01*
X51250Y-35625D02*
X50942Y-35933D01*
X52850Y-35625D02*
X52725Y-35625D01*
X52725Y-35625D02*
X51250Y-35625D01*
X53475Y-36250D02*
X52850Y-35625D01*
G54D19*
X55100Y-36650D02*
X54600Y-36650D01*
X54600Y-36650D02*
X54625Y-36650D01*
X54625Y-36650D02*
X54600Y-36650D01*
G54D20*
X49625Y-34475D02*
X49775Y-34325D01*
X49775Y-34325D02*
X50175Y-34325D01*
X49625Y-34475D02*
X49625Y-35775D01*
X50254Y-35933D02*
X49783Y-35933D01*
X49625Y-35775D02*
X49783Y-35933D01*
G54D19*
X54505Y-36880D02*
X54575Y-36880D01*
X54575Y-36880D02*
X54600Y-36880D01*
X54575Y-36900D02*
X54600Y-36900D01*
X54580Y-36900D02*
X54575Y-36900D01*
X54600Y-36880D02*
X54580Y-36900D01*
X54020Y-36250D02*
X54475Y-36250D01*
X54475Y-36250D02*
X54600Y-36375D01*
X54600Y-36375D02*
X54600Y-36650D01*
X54600Y-36650D02*
X54600Y-36900D01*
X54600Y-36900D02*
X54600Y-36975D01*
X54175Y-37800D02*
X54600Y-37375D01*
X54505Y-36880D02*
X54020Y-36880D01*
X54600Y-37375D02*
X54600Y-36975D01*
G54D10*
G36*
X49957Y-38289D02*
X49950Y-38289D01*
X49950Y-38307D01*
X49850Y-38307D01*
X49850Y-38289D01*
X49842Y-38289D01*
X49842Y-38210D01*
X49850Y-38210D01*
X49850Y-38192D01*
X49950Y-38192D01*
X49950Y-38210D01*
X49957Y-38210D01*
X49957Y-38289D01*
X49957Y-38289D01*
G37*
G54D19*
X49957Y-38289D02*
X49950Y-38289D01*
X49950Y-38307D01*
X49850Y-38307D01*
X49850Y-38289D01*
X49842Y-38289D01*
X49842Y-38210D01*
X49850Y-38210D01*
X49850Y-38192D01*
X49950Y-38192D01*
X49950Y-38210D01*
X49957Y-38210D01*
X49957Y-38289D01*
G54D10*
G36*
X51269Y-35300D02*
X51250Y-35300D01*
X51250Y-35299D01*
X51125Y-35324D01*
X51020Y-35395D01*
X51020Y-35395D01*
X50897Y-35517D01*
X50847Y-35567D01*
X50840Y-35567D01*
X50897Y-35511D01*
X50897Y-35479D01*
X50889Y-35460D01*
X50897Y-35441D01*
X50897Y-35341D01*
X50897Y-35164D01*
X50889Y-35145D01*
X50897Y-35126D01*
X50897Y-35026D01*
X50897Y-34849D01*
X50893Y-34841D01*
X50899Y-34843D01*
X50999Y-34843D01*
X51050Y-34843D01*
X51049Y-35009D01*
X51114Y-35165D01*
X51233Y-35285D01*
X51269Y-35300D01*
X51269Y-35300D01*
G37*
G54D19*
X51269Y-35300D02*
X51250Y-35300D01*
X51250Y-35299D01*
X51125Y-35324D01*
X51020Y-35395D01*
X51020Y-35395D01*
X50897Y-35517D01*
X50847Y-35567D01*
X50840Y-35567D01*
X50897Y-35511D01*
X50897Y-35479D01*
X50889Y-35460D01*
X50897Y-35441D01*
X50897Y-35341D01*
X50897Y-35164D01*
X50889Y-35145D01*
X50897Y-35126D01*
X50897Y-35026D01*
X50897Y-34849D01*
X50893Y-34841D01*
X50899Y-34843D01*
X50999Y-34843D01*
X51050Y-34843D01*
X51049Y-35009D01*
X51114Y-35165D01*
X51233Y-35285D01*
X51269Y-35300D01*
G54D10*
G36*
X55540Y-33186D02*
X55516Y-33163D01*
X55424Y-33125D01*
X55395Y-33125D01*
X55377Y-33035D01*
X55312Y-32937D01*
X55214Y-32872D01*
X55100Y-32850D01*
X54875Y-32850D01*
X54875Y-32575D01*
X54852Y-32460D01*
X54852Y-32460D01*
X54826Y-32421D01*
X54787Y-32362D01*
X54662Y-32237D01*
X54564Y-32172D01*
X54485Y-32157D01*
X54441Y-32113D01*
X54349Y-32075D01*
X54250Y-32075D01*
X53800Y-32075D01*
X53708Y-32113D01*
X53663Y-32158D01*
X53674Y-32129D01*
X53675Y-31921D01*
X53595Y-31728D01*
X53447Y-31580D01*
X53254Y-31500D01*
X53046Y-31499D01*
X52853Y-31579D01*
X52705Y-31727D01*
X52652Y-31853D01*
X52610Y-31752D01*
X52517Y-31727D01*
X52447Y-31798D01*
X52447Y-31657D01*
X52422Y-31564D01*
X52225Y-31495D01*
X52017Y-31506D01*
X51877Y-31564D01*
X51852Y-31657D01*
X52150Y-31954D01*
X52447Y-31657D01*
X52447Y-31798D01*
X52220Y-32025D01*
X52226Y-32030D01*
X52155Y-32101D01*
X52150Y-32095D01*
X52144Y-32101D01*
X52073Y-32030D01*
X52079Y-32025D01*
X51782Y-31727D01*
X51689Y-31752D01*
X51653Y-31855D01*
X51610Y-31752D01*
X51517Y-31727D01*
X51447Y-31798D01*
X51447Y-31657D01*
X51422Y-31564D01*
X51225Y-31495D01*
X51017Y-31506D01*
X50877Y-31564D01*
X50852Y-31657D01*
X51150Y-31954D01*
X51447Y-31657D01*
X51447Y-31798D01*
X51220Y-32025D01*
X51226Y-32030D01*
X51155Y-32101D01*
X51150Y-32095D01*
X51144Y-32101D01*
X51073Y-32030D01*
X51079Y-32025D01*
X50782Y-31727D01*
X50689Y-31752D01*
X50620Y-31949D01*
X50626Y-32060D01*
X50599Y-32050D01*
X50500Y-32050D01*
X50050Y-32050D01*
X49958Y-32088D01*
X49946Y-32100D01*
X49935Y-32100D01*
X49935Y-32099D01*
X49810Y-32124D01*
X49705Y-32195D01*
X49705Y-32195D01*
X49680Y-32220D01*
X49609Y-32325D01*
X49585Y-32450D01*
X49585Y-33210D01*
X49609Y-33334D01*
X49680Y-33439D01*
X49726Y-33486D01*
X49700Y-33550D01*
X49700Y-33612D01*
X49762Y-33675D01*
X49969Y-33675D01*
X49969Y-33675D01*
X50070Y-33695D01*
X50232Y-33695D01*
X50232Y-33775D01*
X50225Y-33775D01*
X50225Y-33782D01*
X50125Y-33782D01*
X50125Y-33775D01*
X49762Y-33775D01*
X49700Y-33837D01*
X49700Y-33899D01*
X49738Y-33991D01*
X49751Y-34004D01*
X49650Y-34024D01*
X49545Y-34095D01*
X49545Y-34095D01*
X49395Y-34245D01*
X49359Y-34298D01*
X49359Y-31479D01*
X55540Y-31450D01*
X55540Y-33186D01*
X55540Y-33186D01*
G37*
G54D19*
X55540Y-33186D02*
X55516Y-33163D01*
X55424Y-33125D01*
X55395Y-33125D01*
X55377Y-33035D01*
X55312Y-32937D01*
X55214Y-32872D01*
X55100Y-32850D01*
X54875Y-32850D01*
X54875Y-32575D01*
X54852Y-32460D01*
X54852Y-32460D01*
X54826Y-32421D01*
X54787Y-32362D01*
X54662Y-32237D01*
X54564Y-32172D01*
X54485Y-32157D01*
X54441Y-32113D01*
X54349Y-32075D01*
X54250Y-32075D01*
X53800Y-32075D01*
X53708Y-32113D01*
X53663Y-32158D01*
X53674Y-32129D01*
X53675Y-31921D01*
X53595Y-31728D01*
X53447Y-31580D01*
X53254Y-31500D01*
X53046Y-31499D01*
X52853Y-31579D01*
X52705Y-31727D01*
X52652Y-31853D01*
X52610Y-31752D01*
X52517Y-31727D01*
X52447Y-31798D01*
X52447Y-31657D01*
X52422Y-31564D01*
X52225Y-31495D01*
X52017Y-31506D01*
X51877Y-31564D01*
X51852Y-31657D01*
X52150Y-31954D01*
X52447Y-31657D01*
X52447Y-31798D01*
X52220Y-32025D01*
X52226Y-32030D01*
X52155Y-32101D01*
X52150Y-32095D01*
X52144Y-32101D01*
X52073Y-32030D01*
X52079Y-32025D01*
X51782Y-31727D01*
X51689Y-31752D01*
X51653Y-31855D01*
X51610Y-31752D01*
X51517Y-31727D01*
X51447Y-31798D01*
X51447Y-31657D01*
X51422Y-31564D01*
X51225Y-31495D01*
X51017Y-31506D01*
X50877Y-31564D01*
X50852Y-31657D01*
X51150Y-31954D01*
X51447Y-31657D01*
X51447Y-31798D01*
X51220Y-32025D01*
X51226Y-32030D01*
X51155Y-32101D01*
X51150Y-32095D01*
X51144Y-32101D01*
X51073Y-32030D01*
X51079Y-32025D01*
X50782Y-31727D01*
X50689Y-31752D01*
X50620Y-31949D01*
X50626Y-32060D01*
X50599Y-32050D01*
X50500Y-32050D01*
X50050Y-32050D01*
X49958Y-32088D01*
X49946Y-32100D01*
X49935Y-32100D01*
X49935Y-32099D01*
X49810Y-32124D01*
X49705Y-32195D01*
X49705Y-32195D01*
X49680Y-32220D01*
X49609Y-32325D01*
X49585Y-32450D01*
X49585Y-33210D01*
X49609Y-33334D01*
X49680Y-33439D01*
X49726Y-33486D01*
X49700Y-33550D01*
X49700Y-33612D01*
X49762Y-33675D01*
X49969Y-33675D01*
X49969Y-33675D01*
X50070Y-33695D01*
X50232Y-33695D01*
X50232Y-33775D01*
X50225Y-33775D01*
X50225Y-33782D01*
X50125Y-33782D01*
X50125Y-33775D01*
X49762Y-33775D01*
X49700Y-33837D01*
X49700Y-33899D01*
X49738Y-33991D01*
X49751Y-34004D01*
X49650Y-34024D01*
X49545Y-34095D01*
X49545Y-34095D01*
X49395Y-34245D01*
X49359Y-34298D01*
X49359Y-31479D01*
X55540Y-31450D01*
X55540Y-33186D01*
G54D10*
G36*
X55540Y-36347D02*
X55397Y-36205D01*
X55264Y-36149D01*
X55397Y-36095D01*
X55540Y-35952D01*
X55540Y-36347D01*
X55540Y-36347D01*
G37*
G54D19*
X55540Y-36347D02*
X55397Y-36205D01*
X55264Y-36149D01*
X55397Y-36095D01*
X55540Y-35952D01*
X55540Y-36347D01*
G54D10*
G36*
X55540Y-39630D02*
X55508Y-39819D01*
X55397Y-39819D01*
X55397Y-39017D01*
X55100Y-38720D01*
X55029Y-38791D01*
X54802Y-39017D01*
X54827Y-39110D01*
X55024Y-39179D01*
X55232Y-39168D01*
X55372Y-39110D01*
X55397Y-39017D01*
X55397Y-39819D01*
X54125Y-39817D01*
X54125Y-38712D01*
X54125Y-38450D01*
X53762Y-38450D01*
X53700Y-38512D01*
X53700Y-38574D01*
X53738Y-38666D01*
X53808Y-38736D01*
X53900Y-38775D01*
X53999Y-38775D01*
X54062Y-38775D01*
X54125Y-38712D01*
X54125Y-39817D01*
X54071Y-39817D01*
X53909Y-39750D01*
X53679Y-39749D01*
X53679Y-39175D01*
X53668Y-38967D01*
X53610Y-38827D01*
X53517Y-38802D01*
X53220Y-39100D01*
X53517Y-39397D01*
X53610Y-39372D01*
X53679Y-39175D01*
X53679Y-39749D01*
X53492Y-39749D01*
X53447Y-39768D01*
X53447Y-39467D01*
X53150Y-39170D01*
X52852Y-39467D01*
X52877Y-39560D01*
X53074Y-39629D01*
X53282Y-39618D01*
X53422Y-39560D01*
X53447Y-39467D01*
X53447Y-39768D01*
X53331Y-39816D01*
X51532Y-39813D01*
X51379Y-39750D01*
X50962Y-39749D01*
X50810Y-39812D01*
X49369Y-39810D01*
X49359Y-39767D01*
X49359Y-39008D01*
X49364Y-39013D01*
X49456Y-39051D01*
X49556Y-39051D01*
X50343Y-39051D01*
X50412Y-39022D01*
X50527Y-39022D01*
X50527Y-39022D01*
X50625Y-39003D01*
X50625Y-39424D01*
X50663Y-39516D01*
X50733Y-39586D01*
X50825Y-39625D01*
X50924Y-39625D01*
X51474Y-39625D01*
X51566Y-39586D01*
X51636Y-39516D01*
X51675Y-39424D01*
X51675Y-39325D01*
X51675Y-39325D01*
X51704Y-39397D01*
X51852Y-39544D01*
X52045Y-39624D01*
X52253Y-39625D01*
X52447Y-39545D01*
X52594Y-39397D01*
X52647Y-39271D01*
X52689Y-39372D01*
X52782Y-39397D01*
X53079Y-39100D01*
X52782Y-38802D01*
X52689Y-38827D01*
X52650Y-38937D01*
X52595Y-38803D01*
X52447Y-38655D01*
X52414Y-38641D01*
X52402Y-38623D01*
X52428Y-38623D01*
X52449Y-38614D01*
X52471Y-38623D01*
X52571Y-38623D01*
X52748Y-38623D01*
X52769Y-38614D01*
X52791Y-38623D01*
X52891Y-38623D01*
X52915Y-38623D01*
X52877Y-38639D01*
X52852Y-38732D01*
X53150Y-39029D01*
X53447Y-38732D01*
X53422Y-38639D01*
X53377Y-38623D01*
X53388Y-38623D01*
X53480Y-38585D01*
X53550Y-38515D01*
X53588Y-38423D01*
X53588Y-38323D01*
X53588Y-38099D01*
X53734Y-38100D01*
X53760Y-38089D01*
X53771Y-38100D01*
X53738Y-38133D01*
X53700Y-38225D01*
X53700Y-38287D01*
X53762Y-38350D01*
X54125Y-38350D01*
X54125Y-38342D01*
X54225Y-38342D01*
X54225Y-38350D01*
X54232Y-38350D01*
X54232Y-38450D01*
X54225Y-38450D01*
X54225Y-38712D01*
X54287Y-38775D01*
X54350Y-38775D01*
X54449Y-38775D01*
X54541Y-38736D01*
X54577Y-38701D01*
X54581Y-38782D01*
X54639Y-38922D01*
X54732Y-38947D01*
X55029Y-38650D01*
X54732Y-38352D01*
X54650Y-38374D01*
X54650Y-38349D01*
X54587Y-38349D01*
X54650Y-38287D01*
X54650Y-38225D01*
X54611Y-38133D01*
X54578Y-38100D01*
X54611Y-38066D01*
X54650Y-37974D01*
X54650Y-37935D01*
X54654Y-37947D01*
X54802Y-38094D01*
X54928Y-38147D01*
X54827Y-38189D01*
X54802Y-38282D01*
X55100Y-38579D01*
X55397Y-38282D01*
X55372Y-38189D01*
X55262Y-38150D01*
X55397Y-38095D01*
X55540Y-37952D01*
X55540Y-38371D01*
X55467Y-38352D01*
X55170Y-38650D01*
X55467Y-38947D01*
X55540Y-38928D01*
X55540Y-39630D01*
X55540Y-39630D01*
G37*
G54D19*
X55540Y-39630D02*
X55508Y-39819D01*
X55397Y-39819D01*
X55397Y-39017D01*
X55100Y-38720D01*
X55029Y-38791D01*
X54802Y-39017D01*
X54827Y-39110D01*
X55024Y-39179D01*
X55232Y-39168D01*
X55372Y-39110D01*
X55397Y-39017D01*
X55397Y-39819D01*
X54125Y-39817D01*
X54125Y-38712D01*
X54125Y-38450D01*
X53762Y-38450D01*
X53700Y-38512D01*
X53700Y-38574D01*
X53738Y-38666D01*
X53808Y-38736D01*
X53900Y-38775D01*
X53999Y-38775D01*
X54062Y-38775D01*
X54125Y-38712D01*
X54125Y-39817D01*
X54071Y-39817D01*
X53909Y-39750D01*
X53679Y-39749D01*
X53679Y-39175D01*
X53668Y-38967D01*
X53610Y-38827D01*
X53517Y-38802D01*
X53220Y-39100D01*
X53517Y-39397D01*
X53610Y-39372D01*
X53679Y-39175D01*
X53679Y-39749D01*
X53492Y-39749D01*
X53447Y-39768D01*
X53447Y-39467D01*
X53150Y-39170D01*
X52852Y-39467D01*
X52877Y-39560D01*
X53074Y-39629D01*
X53282Y-39618D01*
X53422Y-39560D01*
X53447Y-39467D01*
X53447Y-39768D01*
X53331Y-39816D01*
X51532Y-39813D01*
X51379Y-39750D01*
X50962Y-39749D01*
X50810Y-39812D01*
X49369Y-39810D01*
X49359Y-39767D01*
X49359Y-39008D01*
X49364Y-39013D01*
X49456Y-39051D01*
X49556Y-39051D01*
X50343Y-39051D01*
X50412Y-39022D01*
X50527Y-39022D01*
X50527Y-39022D01*
X50625Y-39003D01*
X50625Y-39424D01*
X50663Y-39516D01*
X50733Y-39586D01*
X50825Y-39625D01*
X50924Y-39625D01*
X51474Y-39625D01*
X51566Y-39586D01*
X51636Y-39516D01*
X51675Y-39424D01*
X51675Y-39325D01*
X51675Y-39325D01*
X51704Y-39397D01*
X51852Y-39544D01*
X52045Y-39624D01*
X52253Y-39625D01*
X52447Y-39545D01*
X52594Y-39397D01*
X52647Y-39271D01*
X52689Y-39372D01*
X52782Y-39397D01*
X53079Y-39100D01*
X52782Y-38802D01*
X52689Y-38827D01*
X52650Y-38937D01*
X52595Y-38803D01*
X52447Y-38655D01*
X52414Y-38641D01*
X52402Y-38623D01*
X52428Y-38623D01*
X52449Y-38614D01*
X52471Y-38623D01*
X52571Y-38623D01*
X52748Y-38623D01*
X52769Y-38614D01*
X52791Y-38623D01*
X52891Y-38623D01*
X52915Y-38623D01*
X52877Y-38639D01*
X52852Y-38732D01*
X53150Y-39029D01*
X53447Y-38732D01*
X53422Y-38639D01*
X53377Y-38623D01*
X53388Y-38623D01*
X53480Y-38585D01*
X53550Y-38515D01*
X53588Y-38423D01*
X53588Y-38323D01*
X53588Y-38099D01*
X53734Y-38100D01*
X53760Y-38089D01*
X53771Y-38100D01*
X53738Y-38133D01*
X53700Y-38225D01*
X53700Y-38287D01*
X53762Y-38350D01*
X54125Y-38350D01*
X54125Y-38342D01*
X54225Y-38342D01*
X54225Y-38350D01*
X54232Y-38350D01*
X54232Y-38450D01*
X54225Y-38450D01*
X54225Y-38712D01*
X54287Y-38775D01*
X54350Y-38775D01*
X54449Y-38775D01*
X54541Y-38736D01*
X54577Y-38701D01*
X54581Y-38782D01*
X54639Y-38922D01*
X54732Y-38947D01*
X55029Y-38650D01*
X54732Y-38352D01*
X54650Y-38374D01*
X54650Y-38349D01*
X54587Y-38349D01*
X54650Y-38287D01*
X54650Y-38225D01*
X54611Y-38133D01*
X54578Y-38100D01*
X54611Y-38066D01*
X54650Y-37974D01*
X54650Y-37935D01*
X54654Y-37947D01*
X54802Y-38094D01*
X54928Y-38147D01*
X54827Y-38189D01*
X54802Y-38282D01*
X55100Y-38579D01*
X55397Y-38282D01*
X55372Y-38189D01*
X55262Y-38150D01*
X55397Y-38095D01*
X55540Y-37952D01*
X55540Y-38371D01*
X55467Y-38352D01*
X55170Y-38650D01*
X55467Y-38947D01*
X55540Y-38928D01*
X55540Y-39630D01*
M02*
